<svg
    xmlns="http://www.w3.org/2000/svg"
    viewBox="0 0 1000 620"
    role="img"
    aria-label="Stylized map of Malta, Gozo, and Comino"
>
    <defs>
        <pattern id="radar-grid" width="32" height="32" patternUnits="userSpaceOnUse">
            <path d="M32 0H0V32" fill="none" stroke="rgba(96, 150, 137, 0.12)" stroke-width="1" />
        </pattern>
        <linearGradient id="island-fill" x1="0%" y1="0%" x2="100%" y2="100%">
            <stop offset="0%" stop-color="#1a433a" />
            <stop offset="100%" stop-color="#0d2722" />
        </linearGradient>
    </defs>

    <rect width="1000" height="620" fill="#071310" />
    <rect width="1000" height="620" fill="url(#radar-grid)" />

    <g stroke="rgba(98, 152, 140, 0.18)" fill="none" stroke-width="1">
        <circle cx="500" cy="310" r="95" />
        <circle cx="500" cy="310" r="170" />
        <circle cx="500" cy="310" r="245" />
        <line x1="0" y1="310" x2="1000" y2="310" />
        <line x1="500" y1="0" x2="500" y2="620" />
    </g>

    <g fill="url(#island-fill)" stroke="#7bc6af" stroke-opacity="0.74" stroke-width="2">
        <path
            d="M 755.8 552.0 L 804.2 560.0 L 835.7 556.5 L 853.2 539.0 L 816.9 529.0 L 819.6 519.3 L 846.6 518.9 L 852.8 507.8 L 847.1 502.9 L 856.5 502.4 L 874.4 522.3 L 885.5 532.2 L 886.0 513.0 L 887.5 497.1 L 898.4 487.8 L 889.3 478.9 L 902.0 468.8 L 906.9 466.1 L 910.0 460.1 L 905.4 456.7 L 885.9 458.4 L 900.8 452.0 L 883.6 427.2 L 863.9 415.5 L 852.1 410.5 L 817.8 395.8 L 809.5 397.7 L 806.1 402.1 L 808.8 413.2 L 791.3 404.1 L 798.1 420.2 L 784.3 407.7 L 788.3 426.4 L 762.6 429.1 L 754.8 421.9 L 781.8 402.6 L 795.6 390.7 L 787.7 388.5 L 764.9 394.2 L 749.7 403.9 L 734.8 398.2 L 756.6 392.1 L 760.7 376.0 L 779.4 381.5 L 781.2 376.7 L 770.8 364.9 L 754.6 358.7 L 747.3 363.9 L 741.6 360.2 L 739.5 356.6 L 742.0 353.4 L 741.6 348.3 L 742.9 342.8 L 734.9 341.2 L 705.5 322.5 L 686.1 324.8 L 668.8 321.6 L 661.8 311.0 L 604.9 300.8 L 595.6 292.3 L 600.4 282.1 L 577.8 293.6 L 562.4 298.8 L 548.3 301.7 L 526.0 305.6 L 509.4 305.1 L 519.8 296.0 L 539.4 275.9 L 536.8 269.6 L 524.3 267.3 L 469.6 269.2 L 454.3 269.6 L 447.8 253.9 L 468.7 242.5 L 483.5 236.6 L 493.2 228.8 L 481.8 216.7 L 471.4 215.6 L 465.7 220.8 L 462.3 224.1 L 445.8 224.4 L 431.5 232.0 L 411.5 233.2 L 394.4 228.8 L 392.1 233.3 L 391.1 247.8 L 394.0 264.7 L 413.8 281.1 L 415.9 288.2 L 394.7 313.8 L 412.0 323.8 L 425.3 332.9 L 424.5 335.3 L 421.6 339.3 L 416.1 341.7 L 418.2 343.5 L 423.3 342.0 L 425.8 344.7 L 408.8 350.0 L 404.4 364.9 L 394.4 382.5 L 410.9 413.9 L 437.7 444.8 L 447.3 451.8 L 463.7 460.4 L 513.8 486.7 L 567.4 510.1 L 593.9 524.5 L 604.8 525.7 L 619.7 527.8 L 621.9 530.9 L 625.4 531.1 L 649.6 537.6 L 655.2 538.7 L 661.4 537.9 L 665.6 533.6 L 677.8 536.9 L 683.9 540.3 L 697.9 545.7 L 707.5 546.9 L 744.5 548.5 L 755.4 551.7 Z"
        />

        <path
            d="M 351.6 161.5 L 373.6 162.4 L 382.9 158.7 L 392.1 157.4 L 402.7 153.9 L 407.1 152.8 L 389.6 128.8 L 369.5 119.6 L 358.8 105.4 L 327.3 99.9 L 315.1 90.8 L 295.8 97.3 L 282.7 90.9 L 271.7 81.6 L 260.6 76.8 L 256.6 75.1 L 247.4 79.6 L 245.6 71.9 L 241.2 70.1 L 234.5 70.5 L 231.3 65.1 L 229.3 64.2 L 224.5 66.7 L 221.1 64.0 L 215.4 63.4 L 210.4 62.4 L 205.0 61.8 L 200.2 60.0 L 197.9 61.2 L 193.7 61.1 L 189.5 60.6 L 183.8 65.7 L 183.6 62.7 L 176.2 61.8 L 171.5 60.9 L 167.5 64.5 L 159.3 63.2 L 151.1 64.3 L 143.8 64.9 L 127.9 69.3 L 115.9 73.4 L 103.2 74.3 L 90.0 77.5 L 92.1 88.5 L 97.3 93.5 L 103.5 95.0 L 105.6 107.7 L 98.5 113.7 L 102.1 120.8 L 109.2 124.8 L 101.5 134.9 L 94.1 142.6 L 128.2 146.7 L 152.1 155.9 L 155.6 158.3 L 153.7 162.0 L 162.9 168.4 L 175.8 170.8 L 193.3 172.0 L 203.2 174.4 L 210.1 175.0 L 220.9 175.4 L 232.0 176.3 L 236.5 179.5 L 236.7 182.6 L 242.2 184.1 L 248.2 184.4 L 251.2 187.5 L 255.1 186.7 L 260.8 184.3 L 271.9 181.1 L 276.4 179.2 L 275.4 178.4 L 275.3 175.3 L 273.9 172.3 L 275.9 174.0 L 276.8 176.1 L 279.5 178.6 L 287.4 180.0 L 291.1 179.1 L 294.4 177.0 L 301.8 177.6 L 307.2 176.1 L 313.2 173.0 L 314.8 176.2 L 325.1 171.4 L 337.3 164.4 L 332.4 164.1 L 329.6 161.9 L 334.2 160.7 L 337.9 162.2 L 349.7 161.8 Z"
        />

        <path
            d="M 389.3 176.7 L 387.2 177.0 L 385.7 176.9 L 385.3 175.7 L 383.5 175.9 L 382.5 176.1 L 382.5 178.6 L 384.8 179.9 L 385.0 180.9 L 385.2 181.6 L 384.0 182.5 L 384.8 183.4 L 384.9 184.1 L 385.3 186.0 L 386.1 187.3 L 387.8 188.6 L 389.7 190.6 L 390.9 191.8 L 392.4 190.7 L 394.2 190.4 L 394.3 191.1 L 394.6 191.2 L 394.0 191.6 L 395.7 192.1 L 395.0 195.6 L 391.4 197.8 L 390.1 200.5 L 386.4 201.8 L 400.5 201.2 L 407.5 200.8 L 410.5 199.9 L 415.4 200.4 L 424.1 199.0 L 431.0 197.6 L 433.1 198.0 L 435.8 197.6 L 438.7 194.3 L 437.7 188.7 L 431.2 182.9 L 425.0 181.2 L 418.3 176.6 L 419.2 175.0 L 415.9 173.9 L 414.3 173.0 L 414.7 175.1 L 413.7 178.7 L 410.4 177.4 L 408.2 175.9 L 404.5 175.3 L 403.1 174.1 L 399.8 174.0 L 397.8 178.0 L 395.5 179.6 L 395.7 178.9 L 395.1 179.3 L 394.4 176.9 L 394.8 175.6 L 393.6 174.1 L 393.4 174.1 L 392.2 174.3 L 390.2 176.4 L 389.7 176.5 Z"
        />
    </g>

    <g
        fill="#9fd5c7"
        font-family="Space Mono, 'IBM Plex Mono', Consolas, monospace"
        font-size="16"
        letter-spacing="2"
        opacity="0.7"
    >
        <text x="628" y="390">MALTA</text>
        <text x="208" y="136">GOZO</text>
        <text x="410" y="187">COMINO</text>
    </g>
</svg>
